HIERARCHY
ROOT Hips
{
	OFFSET 0.000000 0.000000 0.000000
	CHANNELS 6 Xposition Yposition Zposition Zrotation Yrotation Xrotation 
	JOINT LHipJoint
	{
		OFFSET 0.000000 0.000000 0.000000
		CHANNELS 3 Zrotation Yrotation Xrotation
		JOINT LeftUpLeg
		{
			OFFSET 1.363060 -1.794630 0.839290
			CHANNELS 3 Zrotation Yrotation Xrotation
			JOINT LeftLeg
			{
				OFFSET 2.448110 -6.726130 0.000000
				CHANNELS 3 Zrotation Yrotation Xrotation
				JOINT LeftFoot
				{
					OFFSET 2.562200 -7.039590 0.000000
					CHANNELS 3 Zrotation Yrotation Xrotation
					JOINT LeftToeBase
					{
						OFFSET 0.157640 -0.433110 2.322550
						CHANNELS 3 Zrotation Yrotation Xrotation
						End Site
						{
							OFFSET 0.000000 0.000000 0.000000
						}
					}
				}
			}
		}
	}
	JOINT RHipJoint
	{
		OFFSET 0.000000 0.000000 0.000000
		CHANNELS 3 Zrotation Yrotation Xrotation
		JOINT RightUpLeg
		{
			OFFSET -1.305520 -1.794630 0.839290
			CHANNELS 3 Zrotation Yrotation Xrotation
			JOINT RightLeg
			{
				OFFSET -2.542530 -6.985550 0.000000
				CHANNELS 3 Zrotation Yrotation Xrotation
				JOINT RightFoot
				{
					OFFSET -2.568260 -7.056230 0.000000
					CHANNELS 3 Zrotation Yrotation Xrotation
					JOINT RightToeBase
					{
						OFFSET -0.164730 -0.452590 2.363150
						CHANNELS 3 Zrotation Yrotation Xrotation
						End Site
						{
							OFFSET 0.000000 0.000000 0.000000
						}
					}
				}
			}
		}
	}
}
MOTION
Frames: 16
Frame Time: 0.008333
-9.401476 17.080199 -2.285454 70.140744 89.816427 92.864893 -9.281568 0.617629 2.749854 -10.181672 -0.068112 -40.006042 -2.635780 0.162213 23.944008 0.860861 2.660354 -8.627997 0.004800 0.000000 -24.294800 11.169127 -3.885042 0.275568 7.906597 -5.708101 -13.683749 0.700455 -2.495926 35.726990 0.622913 16.923242 20.527317 7.645400 -0.000000 -76.212400
-9.212038 17.018640 -2.264735 62.594746 89.203514 84.990609 -9.358068 0.626271 2.625856 -10.523239 -0.225998 -39.820984 -2.532868 0.350502 26.401944 0.994465 3.192668 -9.801671 -0.114300 0.000000 -23.858900 11.257795 -3.793225 0.080048 7.165071 -6.409764 -14.946030 0.426856 -2.693744 39.356199 0.459761 16.485655 21.279171 7.723800 0.000001 -76.238100
-9.022605 16.965548 -2.242820 57.227573 88.597450 79.316833 -9.392203 0.674592 2.492289 -10.918447 -0.210287 -39.439202 -2.468930 0.490737 28.360863 1.132160 3.748514 -10.989494 -0.256900 -0.000000 -23.856400 11.373227 -3.656089 -0.077807 6.471533 -6.941577 -16.287595 0.146902 -2.868721 42.925963 0.276556 15.490266 21.942650 7.508900 0.000000 -75.518900
-8.832681 16.922343 -2.220435 52.692607 87.977081 74.504247 -9.411426 0.745341 2.354096 -11.346708 -0.030238 -38.868079 -2.442188 0.582056 29.793182 1.270211 4.303184 -12.170059 -0.422300 0.000000 -24.292900 11.483469 -3.491649 -0.195394 5.849594 -7.293997 -17.700832 -0.128048 -3.026403 46.382914 0.076616 13.928983 22.406012 6.957200 0.000000 -74.116800
-8.641975 16.890036 -2.198273 48.513520 87.335168 70.076645 -9.427521 0.831868 2.214621 -11.782736 0.299435 -38.114310 -2.448618 0.626947 30.698302 1.404830 4.837430 -13.309068 -0.605301 0.000000 -25.109000 11.575507 -3.307830 -0.274003 5.315388 -7.468814 -19.172225 -0.392326 -3.169532 49.682456 -0.137718 11.843489 22.566481 6.069300 -0.000000 -72.149700
-8.450208 16.869071 -2.177270 44.434443 86.675251 65.777045 -9.452613 0.928001 2.076617 -12.188804 0.764472 -37.194877 -2.481053 0.630643 31.107042 1.530071 5.328231 -14.361144 -0.795800 0.000000 -26.204400 11.637932 -3.111833 -0.315733 4.894724 -7.467538 -20.684573 -0.642525 -3.299085 52.781954 -0.364855 9.309825 22.342104 4.890100 0.000000 -69.771900
-8.257184 16.859356 -2.158334 40.305457 86.004595 61.454337 -9.498170 1.028525 1.943165 -12.523071 1.346775 -36.136167 -2.530398 0.600444 31.074203 1.638751 5.754087 -15.273950 -0.979100 -0.000000 -27.461300 11.661628 -2.909612 -0.323467 4.616640 -7.294200 -22.221555 -0.876536 -3.414088 55.643151 -0.603715 6.435152 21.679942 3.505301 -0.000000 -67.109200
-8.062838 16.860344 -2.141575 36.179953 85.324757 57.157767 -9.563498 1.132516 1.816195 -12.765346 2.009799 -34.951982 -2.587239 0.543017 30.658114 1.725915 6.112638 -15.990409 -1.139300 -0.000001 -28.764700 11.651151 -2.702744 -0.303261 4.483353 -6.968274 -23.764540 -1.091867 -3.513953 58.233215 -0.853070 3.359275 20.558647 2.034300 0.000000 -64.286000
-7.867092 16.871047 -2.126997 32.103556 84.644255 52.931536 -9.649156 1.238187 1.698209 -12.894557 2.717047 -33.666952 -2.641646 0.466590 29.933813 1.787100 6.404043 -16.461197 -1.261400 -0.000000 -30.031800 11.609396 -2.494101 -0.260272 4.501820 -6.508429 -25.296431 -1.284938 -3.597741 60.521286 -1.110321 0.229013 18.985539 0.604700 0.000000 -61.322900
-7.669874 16.890226 -2.114298 28.139024 83.975582 48.840112 -9.753492 1.344274 1.592220 -12.898467 3.429123 -32.311983 -2.684604 0.379909 28.984700 1.820082 6.634913 -16.651465 -1.334200 0.000000 -31.216800 11.540475 -2.286824 -0.198510 4.674606 -5.935851 -26.801959 -1.451060 -3.664331 62.476071 -1.371879 -2.811956 17.010874 -0.665400 -0.000000 -58.312000
-7.471303 16.916485 -2.102566 24.418126 83.332081 45.012933 -9.869358 1.450498 1.498896 -12.784796 4.105443 -30.907302 -2.709557 0.290339 27.886422 1.825867 6.820444 -16.543690 -1.352200 -0.000000 -32.307000 11.453121 -2.084122 -0.123990 4.983026 -5.283062 -28.264901 -1.584515 -3.715747 64.078206 -1.629950 -5.619976 14.690157 -1.677500 -0.000001 -55.127300
-7.271370 16.948379 -2.090773 21.025567 82.731481 41.536471 -9.991755 1.556206 1.419233 -12.566006 4.715238 -29.481894 -2.712711 0.204906 26.713425 1.807140 6.972158 -16.142620 -1.315100 -0.000000 -33.317100 11.352030 -1.890126 -0.039511 5.409204 -4.577584 -29.673181 -1.680018 -3.752757 65.305682 -1.876164 -8.081938 12.132592 -2.375800 0.000001 -51.862101
-7.070233 16.984526 -2.077702 18.053999 82.190166 38.501346 -10.114804 1.661457 1.352092 -12.267351 5.238957 -28.056423 -2.693859 0.128645 25.524454 1.768159 7.099451 -15.471742 -1.227400 -0.000000 -34.281300 11.242003 -1.708993 0.051261 5.922614 -3.851856 -31.015824 -1.733397 -3.777677 66.150194 -2.098774 -10.106001 9.447299 -2.746000 -0.000000 -48.467400
-6.868005 17.023703 -2.062134 15.569607 81.720983 35.971228 -10.234090 1.766776 1.295439 -11.917993 5.671219 -26.649178 -2.655904 0.064812 24.363025 1.713445 7.205462 -14.568776 -1.096200 0.000000 -35.249600 11.125925 -1.544058 0.145782 6.490334 -3.134817 -32.285116 -1.742802 -3.792080 66.611506 -2.285930 -11.636762 6.759481 -2.819900 -0.000000 -44.979600
-6.664824 17.064797 -2.043085 13.607106 81.331926 33.977383 -10.346645 1.873079 1.246446 -11.547176 6.020078 -25.273734 -2.603952 0.014700 23.254721 1.647080 7.287669 -13.478969 -0.930600 -0.000000 -36.285200 11.005467 -1.397209 0.242482 7.080629 -2.449713 -33.476821 -1.709252 -3.796610 66.697883 -2.427520 -12.657825 4.199224 -2.665900 0.000000 -41.512000
-6.460701 17.106903 -2.019800 12.174744 81.023614 32.524837 -10.450693 1.981468 1.202200 -11.180213 6.303200 -23.939978 -2.544092 -0.022041 22.210011 1.572378 7.340079 -12.248526 -0.739800 0.000000 -37.458000 10.881880 -1.268852 0.341057 7.666548 -1.812307 -34.590650 -1.636770 -3.791069 66.425604 -2.516899 -13.190149 1.889768 -2.373400 0.000000 -38.277400
